<?xml version="1.0" encoding="UTF-8" standalone="no"?> <svg xmlns="http://www.w3.org/2000/svg" xmlns:xlink="http://www.w3.org/1999/xlink" xmlns:serif="http://www.serif.com/" width="100%" height="100%" viewBox="0 0 2100 508" version="1.1" xml:space="preserve" style="fill-rule:evenodd;clip-rule:evenodd;stroke-linejoin:round;stroke-miterlimit:2;"> <g transform="matrix(1,0,0,1,0,-3.29577)"> <g transform="matrix(4.16667,0,0,4.16667,0,0)"> <path d="M458.892,91.903L449.929,67.707L458.892,67.707L463.908,84.937L469.063,67.707L477.375,67.707L468.413,91.903L458.892,91.903ZM434.417,86.609C438.273,86.609 439.851,83.404 439.851,79.829C439.851,76.206 438.273,73.002 434.417,73.002C430.563,73.002 428.985,76.206 428.985,79.829C428.985,83.404 430.563,86.609 434.417,86.609ZM434.417,92.46C426.43,92.46 420.347,87.816 420.347,79.829C420.347,71.794 426.43,67.15 434.417,67.15C442.406,67.15 448.49,71.794 448.49,79.829C448.49,87.816 442.406,92.46 434.417,92.46ZM399.408,91.578L399.408,84.426C400.476,84.937 401.823,85.216 403.309,85.216C405.864,85.216 407.721,83.404 407.721,78.11L407.721,59.488L416.359,59.488L416.359,80.711C416.359,87.677 413.526,92.46 404.749,92.46C402.845,92.46 400.894,91.95 399.408,91.578ZM370.627,77.506L379.916,77.506C379.916,74.72 378.615,72.444 375.272,72.444C372.253,72.444 370.813,74.72 370.627,77.506ZM387.439,82.244L370.72,82.244C371.185,85.587 373.739,86.887 377.826,86.887C380.101,86.887 382.702,86.376 385.209,85.03L385.209,90.928C382.516,91.996 379.451,92.46 376.339,92.46C368.352,92.46 362.268,87.77 362.268,79.782C362.268,71.794 367.702,67.15 375.225,67.15C384.188,67.15 387.439,73.513 387.439,80.711L387.439,82.244ZM371.881,64.736L375.04,58.048L383.723,58.048L377.733,64.736L371.881,64.736ZM339.743,91.299L340.208,85.216C342.158,86.052 345.038,86.887 348.056,86.887C349.774,86.887 351.446,86.609 351.446,84.937C351.446,80.85 339.557,83.729 339.557,74.998C339.557,69.426 345.038,67.15 349.867,67.15C352.747,67.15 355.672,67.476 358.366,68.544L357.715,74.349C355.951,73.281 353.304,72.723 351.214,72.723C349.403,72.723 347.359,73.048 347.359,74.395C347.359,78.157 359.805,75.185 359.805,84.38C359.805,90.835 354,92.46 348.52,92.46C344.758,92.46 342.205,92.089 339.743,91.299ZM323.024,86.609C326.878,86.609 328.458,83.404 328.458,79.829C328.458,76.206 326.878,73.002 323.024,73.002C319.169,73.002 317.591,76.206 317.591,79.829C317.591,83.404 319.169,86.609 323.024,86.609ZM323.024,92.46C315.037,92.46 308.953,87.816 308.953,79.829C308.953,71.794 315.037,67.15 323.024,67.15C331.012,67.15 337.095,71.794 337.095,79.829C337.095,87.816 331.012,92.46 323.024,92.46ZM287.086,91.578L287.086,84.426C288.155,84.937 289.501,85.216 290.987,85.216C293.542,85.216 295.399,83.404 295.399,78.11L295.399,59.488L304.037,59.488L304.037,80.711C304.037,87.677 301.204,92.46 292.426,92.46C290.523,92.46 288.572,91.95 287.086,91.578ZM259.14,84.24C259.14,85.912 260.627,86.887 262.578,86.887C265.736,86.887 267.733,84.008 267.733,81.175C266.665,81.129 265.457,81.036 264.204,81.036C261.371,81.036 259.14,81.918 259.14,84.24ZM275.999,91.903L268.336,91.903C268.29,90.602 268.151,89.349 268.151,88.095C266.154,91.114 263.832,92.46 260.394,92.46C255.612,92.46 251.339,90.092 251.339,84.844C251.339,77.46 259.374,76.578 263.832,76.578C265.178,76.578 266.665,76.717 267.733,76.903C267.686,73.605 265.225,72.723 262.207,72.723C259.513,72.723 256.819,73.234 254.498,74.534L254.358,68.869C257.329,67.661 260.441,67.15 264.017,67.15C270.194,67.15 275.535,69.798 275.535,77.182L275.535,86.191C275.535,88.095 275.627,89.999 275.999,91.903ZM238.429,91.903L238.429,67.707L246.788,67.707L246.788,91.903L238.429,91.903ZM234.999,67.429L234.58,74.395C233.651,74.117 232.723,74.117 231.748,74.117C227.847,74.117 225.664,76.949 225.664,81.686L225.664,91.903L217.305,91.903L217.305,67.707L224.921,67.707L224.921,72.166C226.453,69.101 228.543,67.15 232.166,67.15C233.141,67.15 234.163,67.29 234.999,67.429ZM195.577,84.24C195.577,85.912 197.063,86.887 199.014,86.887C202.171,86.887 204.168,84.008 204.168,81.175C203.1,81.129 201.893,81.036 200.639,81.036C197.806,81.036 195.577,81.918 195.577,84.24ZM212.435,91.903L204.772,91.903C204.726,90.602 204.586,89.349 204.586,88.095C202.589,91.114 200.268,92.46 196.831,92.46C192.047,92.46 187.775,90.092 187.775,84.844C187.775,77.46 195.809,76.578 200.268,76.578C201.614,76.578 203.1,76.717 204.168,76.903C204.122,73.605 201.661,72.723 198.642,72.723C195.949,72.723 193.255,73.234 190.933,74.534L190.794,68.869C193.766,67.661 196.877,67.15 200.453,67.15C206.629,67.15 211.97,69.798 211.97,77.182L211.97,86.191C211.97,88.095 212.063,89.999 212.435,91.903ZM143.143,91.903L143.143,59.488L156.75,59.488L163.623,81.036L170.914,59.488L184.01,59.488L184.01,91.903L175.558,91.903L175.697,67.011L167.338,91.903L159.397,91.903L151.502,67.011L151.595,91.903L143.143,91.903ZM503.98,82.244L487.261,82.244C487.726,85.587 490.28,86.887 494.367,86.887C496.642,86.887 499.243,86.376 501.75,85.03L501.75,90.928C499.057,91.996 495.992,92.46 492.88,92.46C484.893,92.46 478.809,87.77 478.809,79.782C478.809,71.794 484.243,67.15 491.766,67.15C500.729,67.15 503.98,73.513 503.98,80.711L503.98,82.244ZM487.168,77.506L496.457,77.506C496.457,74.72 495.156,72.444 491.812,72.444C488.793,72.444 487.354,74.72 487.168,77.506ZM238.782,64.736L241.94,58.048L250.625,58.048L244.633,64.736L238.782,64.736ZM341.758,45.744C345.613,45.744 347.192,42.539 347.192,38.964C347.192,35.341 345.613,32.137 341.758,32.137C337.904,32.137 336.325,35.341 336.325,38.964C336.325,42.539 337.904,45.744 341.758,45.744ZM341.758,51.596C333.771,51.596 327.687,46.952 327.687,38.964C327.687,30.93 333.771,26.286 341.758,26.286C349.746,26.286 355.83,30.93 355.83,38.964C355.83,46.952 349.746,51.596 341.758,51.596ZM338.647,23.871L341.804,17.183L350.489,17.183L344.499,23.871L338.647,23.871ZM322.671,16.765L322.671,22.895L314.312,22.895L314.312,16.765L322.671,16.765ZM314.312,51.038L314.312,26.843L322.671,26.843L322.671,51.038L314.312,51.038ZM309.667,27.632L309.063,33.763C307.531,32.833 305.999,32.415 304.001,32.415C300.378,32.415 297.592,34.923 297.592,39.103C297.592,42.957 300.843,45.465 304.466,45.465C306.37,45.465 308.274,45.047 309.667,44.304L309.853,50.527C307.763,51.224 305.255,51.596 303.026,51.596C295.039,51.596 288.955,46.952 288.955,38.964C288.955,30.93 295.039,26.286 303.026,26.286C305.534,26.286 307.763,26.704 309.667,27.632ZM268.388,43.375C268.388,45.047 269.875,46.022 271.825,46.022C274.983,46.022 276.98,43.144 276.98,40.31C275.912,40.264 274.704,40.171 273.45,40.171C270.618,40.171 268.388,41.054 268.388,43.375ZM285.246,51.038L277.583,51.038C277.537,49.738 277.398,48.484 277.398,47.23C275.401,50.248 273.079,51.596 269.642,51.596C264.859,51.596 260.586,49.227 260.586,43.979C260.586,36.595 268.621,35.713 273.079,35.713C274.425,35.713 275.912,35.852 276.98,36.038C276.933,32.741 274.472,31.858 271.453,31.858C268.759,31.858 266.066,32.37 263.744,33.669L263.605,28.004C266.577,26.796 269.688,26.286 273.264,26.286C279.441,26.286 284.782,28.933 284.782,36.317L284.782,45.326C284.782,47.23 284.875,49.134 285.246,51.038ZM238.202,38.685C238.202,42.539 240.106,45.186 243.264,45.186C246.05,45.186 248.372,42.539 248.372,39.01C248.372,35.341 246.329,32.694 243.264,32.694C240.013,32.694 238.202,35.481 238.202,38.685ZM256.732,16.208L256.732,51.038L249.022,51.038L249.022,46.719C247.862,49.413 244.471,51.596 240.617,51.596C233.418,51.596 229.564,45.651 229.564,38.499C229.564,32.555 233.233,26.286 239.92,26.286C243.264,26.286 246.097,27.168 248.233,29.955L248.326,16.208L256.732,16.208ZM199.748,51.038L199.748,26.843L207.364,26.843L207.364,31.301C209.129,27.818 212.473,26.286 216.281,26.286C222.875,26.286 225.522,30.93 225.522,35.945L225.522,51.038L217.163,51.038L217.163,39.335C217.163,34.784 215.584,33.252 213.309,33.252C209.872,33.252 208.107,35.62 208.107,40.821L208.107,51.038L199.748,51.038ZM194.546,26.843L194.546,51.038L186.93,51.038L186.93,46.58C185.165,50.063 181.821,51.596 178.013,51.596C171.418,51.596 168.771,46.952 168.771,41.936L168.771,26.843L177.13,26.843L177.13,38.546C177.13,43.097 178.709,44.629 180.985,44.629C184.422,44.629 186.187,42.261 186.187,37.06L186.187,26.843L194.546,26.843ZM143.143,51.038L143.143,18.623L164.831,18.623L164.831,24.753L151.781,24.753L151.781,31.858L164.273,31.858L164.273,37.988L151.781,37.988L151.781,51.038L143.143,51.038ZM359.87,51.038L359.87,26.843L367.486,26.843L367.486,31.301C369.25,27.818 372.595,26.286 376.403,26.286C382.998,26.286 385.644,30.93 385.644,35.945L385.644,51.038L377.285,51.038L377.285,39.335C377.285,34.784 375.707,33.252 373.431,33.252C369.994,33.252 368.229,35.62 368.229,40.821L368.229,51.038L359.87,51.038Z" style="fill-rule:nonzero;"></path> </g> <g transform="matrix(4.16667,0,0,4.16667,0,0)"> <path d="M46.398,12.7C46.398,6.124 51.73,0.791 58.307,0.791C64.884,0.791 70.215,6.124 70.215,12.7C70.215,19.277 64.884,24.609 58.307,24.609C51.73,24.609 46.398,19.277 46.398,12.7ZM57.103,61.641C51.426,69.942 47.921,79.301 47.921,88.676C47.921,106.184 54.523,108.826 58.196,108.826C61.869,108.826 68.47,106.183 68.47,88.676C68.47,65.322 46.848,42.019 23.94,34.975L13.493,94.225L0,91.845L12.803,19.231C44.132,19.127 82.172,53.236 82.172,88.676C82.172,109.001 73.439,122.527 58.196,122.527C42.952,122.527 34.22,109 34.22,88.676C34.22,75.422 39.56,62.366 47.888,51.208C51.29,54.475 54.268,57.876 57.103,61.641ZM103.121,94.159L92.684,34.97C84.265,37.55 76,42.315 68.909,48.47C66.061,44.835 62.958,41.574 59.626,38.424C72.754,26.701 89.086,19.127 103.89,19.127L116.615,91.78L103.121,94.159Z" style="fill-rule:nonzero;"></path> </g> </g> </svg> 