<?xml version="1.0" encoding="UTF-8"?> <svg xmlns="http://www.w3.org/2000/svg" width="720" height="349" viewBox="0 0 720 349" fill="none"><path d="M0 0H76.3836L111.2 144.748H113.44L148.257 0H220.601V348.189H191.503V203.691H169.151L134.58 348.189H90.0606L55.4897 203.691H29.3487V348.189H0V0ZM76.3836 174.092L111.2 318.841H113.44L148.257 174.092H191.503V29.5942H169.151L134.58 174.092H90.0606L55.4897 29.5942H29.3487V174.092H76.3836Z" fill="black"></path><path d="M499.399 0H575.783L610.604 144.748H612.839L647.661 0H720V203.441H680.633L629.969 348.189H587.941L538.726 203.441H499.399V0ZM690.902 29.5942H668.55L633.979 174.092H589.46L554.894 29.5942H528.748V174.092H561.078L607.587 318.841H609.827L657.579 174.092H690.902V29.5942Z" fill="black"></path><path d="M292.853 203.441H249.702V0H326.081L360.902 144.748H363.138L397.959 0H470.303V203.441H427.152V280.29C427.152 320.334 402.53 348.189 360 348.189C316.729 348.189 292.853 320.83 292.853 280.541V203.441ZM397.057 174.092H441.205V29.5942H418.848L384.277 174.092H339.763L305.192 29.5942H279.046V174.092H322.944V280.29C322.944 303.916 335.628 319.337 360 319.337C384.127 319.337 397.057 303.916 397.057 280.04V174.092Z" fill="black"></path></svg> 