<?xml version="1.0" encoding="UTF-8" standalone="no"?> <svg xmlns="http://www.w3.org/2000/svg" xmlns:xlink="http://www.w3.org/1999/xlink" xmlns:serif="http://www.serif.com/" width="100%" height="100%" viewBox="0 0 1008 505" version="1.1" xml:space="preserve" style="fill-rule:evenodd;clip-rule:evenodd;stroke-linecap:square;stroke-miterlimit:1.5;"> <g transform="matrix(1,0,0,1,-1204.54,-2782.32)"> <path d="M1240.22,3251L1240.22,2818L1309,2818L1358.09,3014L1387.73,3014L1437,2818L1500,2818L1500,3251" style="fill:none;stroke:rgb(5,5,5);stroke-width:39.58px;"></path> <path d="M1240.22,3054L1309,3054L1356.09,3251L1389.73,3251L1437,3054L1500,3054" style="fill:none;stroke:rgb(5,5,5);stroke-width:39.58px;"></path> <g transform="matrix(1,0,0,1,338.284,0)"> <path d="M1440.72,3054C1440.72,3054 1439.72,3190.53 1439.72,3192C1439.72,3269.61 1299.77,3269.79 1299.72,3192C1299.7,3161.06 1299.72,3054 1299.72,3054L1240.22,3054L1240.22,2818L1309,2818L1358.09,3014L1387.73,3014L1437,2818L1500,2818L1500,3054L1440.72,3054Z" style="fill:none;stroke:rgb(5,5,5);stroke-width:39.58px;stroke-linecap:butt;"></path> </g> <g transform="matrix(1,0,0,1,676.612,0)"> <path d="M1432.38,3054L1388.11,3251L1354.47,3251L1304.38,3054L1240.22,3054L1240.22,2818L1309,2818L1356.09,3014L1385.73,3014L1437,2818L1500,2818L1500,3054L1432.38,3054Z" style="fill:none;stroke:rgb(5,5,5);stroke-width:39.58px;"></path> </g> </g> </svg> 