<svg width="216" viewBox="0 0 216 145" fill="none" xmlns="http://www.w3.org/2000/svg">
<path fill-rule="evenodd" clip-rule="evenodd" d="M215.338 0V144.973H0.207031V0H215.338ZM107.58 111.588L106.889 113.498L105.804 116.44L102.486 116.507L100.231 116.561L102.065 117.884L104.679 119.754L103.733 122.714L103.096 124.737L104.845 123.576L107.58 121.759L110.319 123.576L112.068 124.742L111.431 122.714L110.489 119.754L113.09 117.884L114.919 116.561L112.691 116.507L109.355 116.44L108.279 113.498L107.575 111.588H107.58ZM131.024 105.43L130.329 107.327L129.253 110.287L125.935 110.363L123.68 110.404L125.518 111.718L128.132 113.601L127.191 116.561L126.545 118.579L128.298 117.427L131.024 115.61L135.503 118.575L134.889 116.557L133.938 113.597L136.539 111.713L138.368 110.404L136.126 110.359L132.804 110.287L131.719 107.327L131.024 105.43ZM83.9556 105.309L83.2516 107.206L82.1846 110.175L78.8533 110.229L76.6025 110.278L78.4408 111.592L81.0413 113.476L80.1132 116.436L79.4586 118.454L81.2072 117.306L83.9556 115.485L86.6816 117.306L88.4526 118.454L87.7935 116.436L86.852 113.476L89.4615 111.592L91.2997 110.278L89.0535 110.229L85.7266 110.175L84.6505 107.206L83.9556 105.309ZM148.066 88.5489L147.371 90.4415L146.286 93.4015L142.959 93.4642L140.718 93.5091L142.56 94.8321L145.156 96.7068L144.215 99.6758L143.587 101.694L145.322 100.528L148.066 98.7205L150.806 100.532L152.545 101.689L151.9 99.6758L150.971 96.7068L153.576 94.8321L155.41 93.5046L153.159 93.4598L149.842 93.4015L148.757 90.4415L148.066 88.5489ZM67.0302 88.347L66.3262 90.2486L65.2412 93.1952L61.9144 93.2669L59.6726 93.3162L61.4974 94.6213L64.1113 96.5184L63.1697 99.4784L62.5152 101.479L64.2772 100.335L67.0032 98.5232L69.7472 100.335L71.4913 101.488L70.8591 99.4739L69.9175 96.5139L72.5315 94.6213L74.3474 93.3207L72.1055 93.2669L68.7877 93.1952L67.7072 90.2486L67.0302 88.347ZM154.361 65.1962L153.666 67.0888L152.59 70.0488L149.268 70.1116L147.026 70.1565L148.86 71.475L151.469 73.3587L150.528 76.3187L149.864 78.3369L151.635 77.1708L154.361 75.3679L157.114 77.1663L158.863 78.3324L158.217 76.3187L157.271 73.3587L159.885 71.475L161.714 70.1565L159.468 70.1116L156.15 70.0488L155.065 67.0888L154.361 65.1962ZM60.7218 65.1514L60.0269 67.053L58.9418 70.0085L55.6239 70.0623L53.3821 70.1072L57.8165 73.3093L56.2337 78.292L57.9823 77.1259L60.7218 75.3141L63.4478 77.1259L65.2098 78.292L63.6316 73.3093L66.2321 71.4257L68.0703 70.1116L65.8285 70.0668L62.5018 70.0085L61.4167 67.0485L60.7218 65.1514ZM148.147 41.8122L147.443 43.7228L146.376 46.6873L143.049 46.7411L140.807 46.7815L142.628 48.1L145.237 49.9836L143.65 54.9618L145.412 53.8092L148.147 51.9839L150.9 53.8092L152.635 54.9618L152.003 52.9481L151.048 49.9792L153.657 48.1L155.495 46.7815L153.254 46.7366L149.918 46.6918L148.851 43.7228L148.147 41.8122ZM67.1019 41.6553L66.3979 43.5524L65.3219 46.5124L62.004 46.5707L59.7623 46.6155L61.5916 47.9385L64.1921 49.8222L63.2505 52.7822L62.6138 54.8004L64.3489 53.6388L67.0929 51.8269L69.8369 53.6388L71.5854 54.7959L70.9398 52.7777L69.9983 49.8177L72.6167 47.9341L74.437 46.611L72.1907 46.5662L68.8639 46.5079L67.7969 43.5524L67.1019 41.6553ZM131.23 24.8192L130.535 26.7252L129.459 29.6852L126.142 29.748L123.882 29.7928L125.72 31.1114L128.347 32.995L127.392 35.955L126.738 37.9732L128.509 36.8206L131.226 35.0087L133.97 36.8206L135.732 37.9732L135.073 35.955L134.145 32.995L136.745 31.1114L138.583 29.7973L136.351 29.748L133.015 29.6897L131.93 26.7252L131.226 24.8192H131.23ZM84.1619 24.8192L83.4669 26.7252L82.3818 29.6852L79.0641 29.748L76.8088 29.7794L78.6381 31.1069L81.252 32.9861L80.3149 35.9461L79.6648 37.9732L81.4134 36.8027L84.1619 34.9953L86.8879 36.8027L88.6365 37.9687L87.9953 35.9505L87.0582 32.9861L89.6632 31.1024L91.5014 29.7794L89.2596 29.748L85.9329 29.6897L84.8478 26.7252L84.1619 24.8192ZM107.58 18.5583L106.894 20.4644L105.809 23.4199L102.491 23.4916L100.235 23.5275L102.074 24.8461L104.683 26.7342L103.742 29.7032L103.091 31.7124L104.849 30.5642L107.584 28.7434L110.332 30.5642L112.081 31.7124L111.444 29.7032L110.498 26.7342L113.099 24.8505L114.924 23.5275L112.695 23.4916L109.368 23.4199L108.283 20.4644L107.58 18.5583Z" fill="white"/>
</svg>
